<svg width="24" height="25" viewBox="0 0 24 25" fill="none" xmlns="http://www.w3.org/2000/svg">
<path d="M19.4441 11.9441H12.5559V5.05589C12.5559 4.74894 12.3069 4.5 12 4.5C11.6931 4.5 11.4441 4.74894 11.4441 5.05589V11.9441H4.55589C4.24894 11.9441 4 12.1931 4 12.5C4 12.8069 4.24894 13.0559 4.55589 13.0559H11.4441V19.9441C11.4441 20.2511 11.6931 20.5 12 20.5C12.3069 20.5 12.5559 20.2511 12.5559 19.9441V13.0559H19.4441C19.7511 13.0559 20 12.8069 20 12.5C20 12.1931 19.7511 11.9441 19.4441 11.9441Z" fill="#F2F2F2"/>
</svg>
