<svg width="32" height="32" viewBox="0 0 32 32" fill="none" xmlns="http://www.w3.org/2000/svg">
<path fill-rule="evenodd" clip-rule="evenodd" d="M3.66669 16C3.66669 22.8006 9.19942 28.3334 16 28.3334C22.8006 28.3334 28.3334 22.8006 28.3334 16C28.3334 9.19942 22.8006 3.66669 16 3.66669C9.19942 3.66669 3.66669 9.19942 3.66669 16ZM5.13799 16C5.13799 10.0106 10.0106 5.13799 16 5.13799C21.9889 5.13799 26.8621 10.0106 26.8621 16C26.8621 21.9895 21.9895 26.8621 16 26.8621C10.0106 26.8621 5.13799 21.9895 5.13799 16ZM13.9057 19.6239C14.049 19.7678 14.2377 19.8395 14.4258 19.8395C14.6138 19.8395 14.8019 19.7672 14.9458 19.6239L21.1189 13.4521C21.4061 13.1649 21.4061 12.6992 21.1189 12.412C20.8317 12.1247 20.366 12.1247 20.0788 12.412L14.4258 18.0637L11.9444 15.5823C11.6572 15.2951 11.1915 15.2951 10.9042 15.5823C10.617 15.8695 10.617 16.3352 10.9042 16.6225L13.9057 19.6239Z" fill="#F2F2F2"/>
</svg>
