<svg width="32" height="32" viewBox="0 0 32 32" fill="none" xmlns="http://www.w3.org/2000/svg">
<path d="M15.939 16.8109C15.4515 16.8109 15.0562 16.4476 15.0562 15.9996V5.14453C15.0562 4.6965 15.4515 4.33325 15.939 4.33325C16.4266 4.33325 16.8219 4.6965 16.8219 5.14453V15.9996C16.8219 16.4476 16.4266 16.8109 15.939 16.8109Z" fill="#F2F2F2"/>
<path d="M15.9392 10.4908C15.7135 10.4908 15.4871 10.4119 15.3146 10.2534L13.028 8.15218C12.6831 7.83523 12.6831 7.32199 13.028 7.00504C13.3729 6.6881 13.9314 6.6881 14.2763 7.00504L16.563 9.10628C16.9079 9.42322 16.9079 9.93646 16.563 10.2534C16.3905 10.4119 16.1649 10.4908 15.9392 10.4908Z" fill="#F2F2F2"/>
<path d="M15.8958 27.6666H15.8923C15.4047 27.6646 15.0108 27.3007 15.0129 26.8527L15.0555 15.997C15.0569 15.5503 15.4523 15.189 15.9384 15.189H15.942C16.4295 15.1903 16.8234 15.5548 16.8213 16.0028L16.7787 26.8586C16.7766 27.3053 16.382 27.6666 15.8958 27.6666Z" fill="#F2F2F2"/>
<path d="M13.568 25.1414C13.3409 25.1414 13.1138 25.0612 12.9406 24.9014C12.5979 24.5832 12.6 24.0693 12.9463 23.7543L15.2983 21.6133C15.6446 21.2983 16.2039 21.3002 16.5467 21.6185C16.8894 21.9367 16.8873 22.4506 16.541 22.7656L14.189 24.9066C14.0166 25.0632 13.7923 25.1414 13.568 25.1414Z" fill="#F2F2F2"/>
<path d="M7.58731 24.415C7.36021 24.415 7.1331 24.3348 6.95994 24.175C6.61715 23.8568 6.61928 23.3436 6.96561 23.0279L15.3167 15.4238C15.663 15.1088 16.2223 15.1108 16.5651 15.429C16.9086 15.7473 16.9057 16.2605 16.5594 16.5762L8.2083 24.1803C8.03656 24.3368 7.81158 24.415 7.58731 24.415Z" fill="#F2F2F2"/>
<path d="M11.0911 24.239H11.0861C10.5985 24.2364 10.2053 23.8712 10.2082 23.4231L10.2224 21.2052L7.78881 21.1921C7.30124 21.1895 6.90807 20.8243 6.9109 20.3763C6.91374 19.9302 7.30834 19.5696 7.79377 19.5696H7.79874L11.9973 19.5924L11.9725 23.4329C11.9697 23.879 11.5751 24.239 11.0896 24.2396L11.0911 24.239Z" fill="#F2F2F2"/>
<path d="M15.9525 16.8089H15.9475L4.21117 16.7482C3.7236 16.7449 3.33043 16.3797 3.33327 15.9317C3.33611 15.485 3.7307 15.125 4.21614 15.125C4.21756 15.125 4.21969 15.125 4.22111 15.125L15.9575 15.1857C16.445 15.1883 16.8382 15.5535 16.8354 16.0015C16.8325 16.4476 16.4379 16.8082 15.9525 16.8082V16.8089Z" fill="#F2F2F2"/>
<path d="M6.81438 18.9284C6.58656 18.9284 6.35875 18.8475 6.18558 18.6871C5.8435 18.3682 5.84705 17.8543 6.1941 17.54L7.92151 15.9741L6.21752 14.3868C5.87544 14.0679 5.87899 13.554 6.22603 13.2397C6.57308 12.9253 7.13232 12.9286 7.4744 13.2475L10.4182 15.9898L7.43395 18.6949C7.2622 18.8508 7.03793 18.9284 6.81438 18.9284Z" fill="#F2F2F2"/>
<path d="M15.9525 16.8108C15.7247 16.8108 15.4969 16.7299 15.3244 16.5695L7.02163 8.83953C6.67884 8.52063 6.6831 8.00738 7.02943 7.69239C7.37648 7.3774 7.93572 7.38132 8.2778 7.69957L16.5806 15.4295C16.9234 15.7484 16.9191 16.2623 16.5721 16.5767C16.4004 16.7325 16.1761 16.8108 15.9518 16.8108H15.9525Z" fill="#F2F2F2"/>
<path d="M12.0477 12.3697L7.87531 12.339C7.38774 12.3358 6.99599 11.9693 6.99954 11.5212C7.00308 11.0752 7.39768 10.7165 7.88241 10.7165C7.88454 10.7165 7.88737 10.7165 7.8895 10.7165L10.2968 10.7341L10.316 8.49787C10.3195 8.0518 10.7141 7.69312 11.1988 7.69312C11.201 7.69312 11.2038 7.69312 11.2059 7.69312C11.6935 7.69638 12.0853 8.06288 12.0817 8.51091L12.0484 12.369L12.0477 12.3697Z" fill="#F2F2F2"/>
<path d="M15.9525 20.7152H15.0696V11.2844H15.9525C18.782 11.2844 21.0843 13.4 21.0843 16.0001C21.0843 18.6003 18.782 20.7158 15.9525 20.7158V20.7152ZM16.8353 13.0146V18.985C18.2647 18.6277 19.3186 17.4251 19.3186 16.0001C19.3186 14.5752 18.2647 13.372 16.8353 13.0152V13.0146Z" fill="#F2F2F2"/>
<path d="M21.7892 11.8505C21.5621 11.8505 21.335 11.7703 21.1618 11.6105C20.8191 11.2922 20.8212 10.7784 21.1675 10.4634L23.5195 8.323C23.8658 8.00801 24.425 8.00997 24.7678 8.32822C25.1106 8.64647 25.1085 9.16036 24.7622 9.47535L22.4102 11.6164C22.2385 11.7729 22.0135 11.8511 21.7892 11.8511V11.8505Z" fill="#F2F2F2"/>
<path d="M24.1297 24.3999C23.9026 24.3999 23.6755 24.3197 23.5023 24.1599L21.1731 21.9987C20.8303 21.6804 20.8324 21.1666 21.1787 20.8516C21.5251 20.5366 22.0836 20.5385 22.4271 20.8568L24.7564 23.018C25.0991 23.3363 25.097 23.8502 24.7507 24.1652C24.5789 24.3217 24.354 24.3999 24.1297 24.3999Z" fill="#F2F2F2"/>
<path d="M27.4512 16.7216H27.447L24.1369 16.7073C23.6494 16.7053 23.2562 16.3401 23.2583 15.8921C23.2604 15.4454 23.6557 15.0847 24.1412 15.0847H24.1454L27.4555 15.0991C27.9431 15.101 28.3362 15.4662 28.3341 15.9143C28.332 16.361 27.9367 16.7216 27.4512 16.7216Z" fill="#F2F2F2"/>
</svg>
