<svg width="24" height="24" viewBox="0 0 24 24" fill="none" xmlns="http://www.w3.org/2000/svg">
<path fill-rule="evenodd" clip-rule="evenodd" d="M5.00002 17.9C5.00002 17.9552 4.95502 18.0002 4.89982 17.9984C3.27802 17.9459 2.00012 16.6236 2.00002 15C1.99995 13.8223 2.00005 12.4904 2.00016 11.1254C2.00032 9.01347 2.00048 6.82225 2.00002 5C1.99961 3.34315 3.34317 2.00005 5.00002 2H15C16.6236 1.99998 17.9469 3.27711 17.9985 4.89985C18.0002 4.95503 17.9553 5 17.9001 5H17.1001C17.0448 5 17.0003 4.95513 16.9976 4.89993C16.9461 3.84591 16.0709 2.99999 15 3H5.00002C3.90098 2.99999 3.00001 3.89543 3.00002 5C3.00003 5.53735 3.0001 6.36345 3.00018 7.32314C3.00041 9.93535 3.00072 13.5373 3.00002 15C2.99951 16.0709 3.84683 16.9452 4.90005 16.9975C4.9552 17.0003 5.00002 17.0448 5.00002 17.1V17.9ZM9.00098 6.99997H19.001C20.1055 6.99997 21.001 7.8954 21.001 8.99997V19C21.001 20.1045 20.1055 21 19.001 21H9.00098C7.89641 21 7.00098 20.1045 7.00098 19V8.99997C7.00098 7.8954 7.89641 6.99997 9.00098 6.99997ZM6.00098 8.99997C6.00098 7.34311 7.34412 5.99997 9.00098 5.99997H19.001C20.6578 5.99997 22.001 7.34311 22.001 8.99997V19C22.001 20.6568 20.6578 22 19.001 22H9.00098C7.34412 22 6.00098 20.6568 6.00098 19V8.99997Z" fill="#F2F2F2"/>
</svg>
