<svg width="32" height="32" viewBox="0 0 32 32" fill="none" xmlns="http://www.w3.org/2000/svg">
<path fill-rule="evenodd" clip-rule="evenodd" d="M16 28C9.38319 28 4 22.6168 4 16C4 9.3832 9.38319 4 16 4C22.6168 4 28 9.3832 28 16C28 22.6168 22.6168 28 16 28ZM16 5.43154C10.1724 5.43154 5.43154 10.1724 5.43154 16C5.43154 21.8276 10.1724 26.5685 16 26.5685C21.8276 26.5685 26.5685 21.8276 26.5685 16C26.5678 10.1724 21.827 5.43154 16 5.43154ZM11.9044 20.8399C11.7214 20.8399 11.5378 20.7702 11.3984 20.6301C11.1189 20.3507 11.1189 19.8976 11.3984 19.6181L15 16.0171L11.3997 12.4162C11.1202 12.1367 11.1202 11.6836 11.3997 11.4042C11.6792 11.1247 12.1323 11.1247 12.4117 11.4042L16.0122 15.005L19.6129 11.4048C19.8924 11.1254 20.3455 11.1254 20.625 11.4048C20.9044 11.6843 20.9044 12.1374 20.625 12.4169L17.0244 16.0172L20.6256 19.6187C20.9051 19.8982 20.9051 20.3513 20.6256 20.6307C20.4856 20.7708 20.302 20.8405 20.119 20.8405C19.936 20.8405 19.7524 20.7708 19.613 20.6307L16.0121 17.0293L12.4104 20.6308C12.2704 20.7702 12.0874 20.8399 11.9044 20.8399Z" fill="#FFFFFF"/>
</svg>
