<svg width="32" height="33" viewBox="0 0 32 33" fill="none" xmlns="http://www.w3.org/2000/svg">
<path fill-rule="evenodd" clip-rule="evenodd" d="M9.88442 27.7613C11.6622 29.1427 13.8482 29.8334 16.0342 29.8334C18.2202 29.8334 20.4063 29.1427 22.184 27.7613C23.9447 26.3958 25.1356 24.4826 25.5268 22.3788C26.7787 15.5712 21.4625 9.43335 21.4625 11.4363C21.4625 13.9213 19.5999 15.1539 19.5999 13.5C19.5999 7.71202 15.2602 3.17153 14.3742 3.1667C13.9957 3.16463 13.9406 3.46686 13.8078 4.19475C13.6297 5.17088 13.312 6.91249 11.8876 9.71229C10.9548 11.5457 9.90438 13.0702 8.96083 14.4397C8.52385 15.0739 8.10978 15.6749 7.74092 16.2579C6.57561 18.0997 6.15031 20.275 6.54159 22.3788C6.93286 24.4826 8.12369 26.3958 9.88442 27.7613ZM9.1999 16.5C8.30402 17.7667 7.3999 20.0334 7.89925 22.2666C8.20819 23.7687 8.86647 25.2334 10.5998 26.6334C12.3331 28.0117 14.3922 28.5001 16.0448 28.5001C17.6974 28.5001 19.7283 27.9604 21.264 26.8211C22.7998 25.6819 23.9037 23.7687 24.234 22.1659C24.7331 19.1 23.9999 16.0334 22.3999 13.5C20.7999 17.1667 18.376 15.2787 18.3093 14.0121C18.2426 10.6121 17.2665 8.16669 14.9331 5.30009C14.0666 9.43335 11.8876 12.7 9.1999 16.5ZM18.54 26.3274C17.8002 26.8869 16.8906 27.1667 15.9809 27.1667C15.0713 27.1667 14.1617 26.8869 13.4219 26.3274C12.6892 25.7743 12.1937 24.8642 12.0309 24.0121C11.7049 22.3059 12.6499 20.4124 13.7125 19.1313C14.775 17.8502 16.1716 16.5 17.1765 16.5C17.798 16.5 17.9824 17.7004 18.1192 18.5912C18.1659 18.8954 18.2071 19.1636 18.2583 19.3354C18.4593 20.0106 19.0648 21.0971 19.4319 21.6678C19.7991 22.2384 20.063 23.0852 19.931 24.0121C19.7991 24.9389 19.2727 25.7743 18.54 26.3274ZM15.9901 25.8164C16.5995 25.8164 17.3523 25.6139 17.8561 25.1413C18.0968 24.9156 18.5045 24.5274 18.593 23.8586C18.6868 23.1498 18.5262 22.711 18.1235 22.1034C17.8102 21.6308 17.3859 20.776 17.1186 20.1456C16.8514 19.5151 16.6497 18.1203 16.6497 18.1203C16.6497 18.1203 15.9135 18.5988 14.8416 19.8755C14.1048 20.7532 13.2339 22.1709 13.3008 23.3861C13.3381 24.0635 13.5559 24.6274 14.1047 25.1413C14.4938 25.5058 15.1766 25.8164 15.9901 25.8164Z" fill="#FFFFFF"/>
</svg>
