<svg width="32" height="33" viewBox="0 0 32 33" fill="none" xmlns="http://www.w3.org/2000/svg">
<path fill-rule="evenodd" clip-rule="evenodd" d="M14.346 28.5H17.642C19.0239 28.5 20.1487 27.3758 20.1475 25.9933C20.1475 25.5134 20.3952 25.0845 20.8104 24.8448C21.2256 24.6052 21.7211 24.6058 22.1362 24.8448C22.7164 25.1804 23.3912 25.2681 24.0385 25.0957C24.6853 24.922 25.2262 24.5075 25.5611 23.9273L27.2094 21.0727C27.9003 19.8757 27.4883 18.34 26.2912 17.6485C25.8761 17.4088 25.6283 16.9793 25.6283 16.5C25.6283 16.0201 25.8761 15.5912 26.2912 15.3515C26.8714 15.0173 27.2866 14.4763 27.4596 13.8296C27.6327 13.1829 27.5443 12.5075 27.2094 11.9273L25.5611 9.0733C25.2262 8.49315 24.6853 8.07796 24.0385 7.90492C23.3912 7.73 22.7158 7.81964 22.1362 8.15515C21.7211 8.39356 21.2256 8.39418 20.8104 8.15515C20.3952 7.9155 20.1475 7.48599 20.1475 7.00669C20.1475 5.62481 19.0233 4.5 17.6408 4.5H14.3448C12.9629 4.5 11.8381 5.62418 11.8381 7.00669C11.8381 7.48599 11.5903 7.9155 11.1752 8.15515C10.76 8.39418 10.2645 8.39418 9.84929 8.15515C9.26977 7.82088 8.59376 7.73125 7.94701 7.90492C7.30027 8.07859 6.75934 8.49315 6.42445 9.0733L4.77677 11.9273C4.4425 12.5075 4.35286 13.1829 4.52653 13.8296C4.7002 14.4763 5.11477 15.0167 5.69491 15.3515C6.1101 15.5912 6.35784 16.0201 6.35784 16.5C6.35784 16.9793 6.1101 17.4088 5.69616 17.6472C5.11601 17.9821 4.70145 18.5224 4.52778 19.1698C4.35411 19.8172 4.44312 20.4925 4.77801 21.0721L6.42569 23.9267C6.76058 24.5068 7.30151 24.922 7.94826 25.0951C8.59438 25.2675 9.27039 25.1791 9.85053 24.8442C10.2651 24.6046 10.7612 24.6052 11.1758 24.8442C11.5916 25.0845 11.8393 25.514 11.8393 25.9933C11.8393 27.3752 12.9635 28.5 14.346 28.5ZM11.7665 23.8221C11.3737 23.5955 10.943 23.4823 10.5128 23.4823C10.0821 23.4823 9.65134 23.5956 9.26043 23.8228C8.95417 24.0002 8.59687 24.0468 8.25452 23.9553C7.91216 23.8638 7.62582 23.6447 7.44904 23.3378L5.80073 20.4832C5.62333 20.1769 5.57664 19.8196 5.66815 19.4773C5.75965 19.1349 5.97876 18.8486 6.28564 18.6718C7.07057 18.2186 7.5393 17.4069 7.5393 16.5006C7.5393 15.5943 7.07057 14.7826 6.28564 14.3294C5.97938 14.1527 5.75965 13.8669 5.66815 13.5246C5.57664 13.1822 5.62333 12.8249 5.80073 12.5181L7.44842 9.66402C7.81381 9.03097 8.62675 8.8131 9.25981 9.17849C10.0447 9.63165 10.9816 9.63228 11.7665 9.17849C12.5514 8.72533 13.0202 7.91363 13.0202 7.00731C13.0202 6.27653 13.6152 5.68145 14.346 5.68145H17.642C18.3728 5.68145 18.9679 6.27653 18.9679 7.00731C18.9679 7.91363 19.4366 8.72533 20.2215 9.17849C21.0058 9.63165 21.9433 9.6329 22.7282 9.17849C23.0345 9.00109 23.3918 8.95378 23.7341 9.04591C24.0765 9.13741 24.3628 9.35714 24.5396 9.66402L26.1879 12.5181C26.5533 13.1517 26.3354 13.9641 25.7024 14.3294C24.9175 14.7826 24.4487 15.5943 24.4487 16.5006C24.4487 17.4069 24.9175 18.2186 25.7024 18.6718C26.3361 19.0372 26.5533 19.8501 26.1879 20.4832L24.5396 23.3378C24.1742 23.9709 23.3619 24.1894 22.7282 23.8228C21.9439 23.3696 21.0065 23.3696 20.2215 23.8228C19.4366 24.2759 18.9679 25.0876 18.9679 25.9939C18.9679 26.7247 18.3728 27.3198 17.642 27.3198H14.346C13.6152 27.3198 13.0202 26.7247 13.0202 25.9933C13.0202 25.087 12.5514 24.2753 11.7665 23.8221ZM15.542 12.1737L15.2796 11.9113C15.1004 11.7321 14.8124 11.7321 14.6332 11.9113L14.6204 11.9241C14.4412 12.1033 14.4412 12.3913 14.6204 12.5705L15.542 13.4921V15.6969L13.5932 14.5801L13.2668 13.3449C13.2028 13.1017 12.9532 12.9545 12.71 13.0185C12.4636 13.0825 12.3164 13.3353 12.3836 13.5817L12.4796 13.9369L11.862 13.5785C11.6412 13.4505 11.3628 13.5273 11.2348 13.7481L11.2316 13.7545C11.1068 13.9721 11.1804 14.2537 11.4012 14.3785L12.022 14.7369L11.654 14.8329C11.4076 14.8969 11.2604 15.1497 11.3276 15.3961V15.3993C11.3948 15.6425 11.6444 15.7865 11.8876 15.7193L13.1516 15.3801L15.0716 16.4969L13.1516 17.6137L11.8876 17.2745C11.6444 17.2105 11.3948 17.3513 11.3276 17.5946V17.5977C11.2604 17.8441 11.4076 18.0969 11.654 18.1609L12.022 18.2569L11.4012 18.6153C11.1836 18.7401 11.1068 19.0217 11.2316 19.2393L11.2348 19.2457C11.3596 19.4665 11.6412 19.5434 11.862 19.4153L12.4796 19.0569L12.3836 19.4121C12.3164 19.6586 12.4636 19.9114 12.71 19.9753C12.9532 20.0393 13.2028 19.8922 13.2668 19.6489L13.5932 18.4137L15.542 17.2969V19.5082L14.6204 20.4297C14.4412 20.6089 14.4412 20.8969 14.6204 21.0761L14.6332 21.0889C14.8124 21.2682 15.1004 21.2682 15.2796 21.0889L15.542 20.8265V21.5434C15.542 21.7962 15.7468 22.0009 15.9996 22.0009C16.2524 22.0009 16.4572 21.7962 16.4572 21.5434V20.8265L16.7196 21.0889C16.8988 21.2682 17.1868 21.2682 17.366 21.0889L17.3788 21.0761C17.558 20.8969 17.558 20.6089 17.3788 20.4297L16.4572 19.5082V17.3034L18.406 18.4201L18.7324 19.6553C18.7964 19.8986 19.046 20.0457 19.2892 19.9818C19.5356 19.9177 19.6828 19.665 19.6156 19.4186L19.5196 19.0633L20.1372 19.4217C20.358 19.5497 20.6364 19.4729 20.7644 19.2521L20.7676 19.2457C20.8924 19.0281 20.8188 18.7465 20.598 18.6217L19.9804 18.2601L20.3484 18.1642C20.5948 18.1001 20.742 17.8473 20.6748 17.6009V17.5977C20.6076 17.3545 20.358 17.2105 20.1148 17.2777L18.8508 17.6169L16.9308 16.5001L18.8508 15.3833L20.1148 15.7225C20.358 15.7865 20.6076 15.6458 20.6748 15.4025V15.3993C20.742 15.1529 20.5948 14.9001 20.3484 14.8361L19.9804 14.7401L20.6012 14.3818C20.8188 14.2569 20.8956 13.9753 20.7708 13.7577L20.7676 13.7481C20.6428 13.5273 20.3612 13.4505 20.1404 13.5785L19.5228 13.9369L19.6188 13.5817C19.686 13.3353 19.5388 13.0825 19.2924 13.0185C19.0492 12.9545 18.7996 13.1017 18.7356 13.3449L18.406 14.5801L16.4572 15.6969V13.4921L17.3788 12.5705C17.558 12.3913 17.558 12.1033 17.3788 11.9241L17.366 11.9113C17.1868 11.7321 16.8988 11.7321 16.7196 11.9113L16.4572 12.1737V11.4569C16.4572 11.2041 16.2524 10.9993 15.9996 10.9993C15.7468 10.9993 15.542 11.2041 15.542 11.4569V12.1737Z" fill="#42CAFD"/>
</svg>
