<svg width="32" height="33" viewBox="0 0 32 33" fill="none" xmlns="http://www.w3.org/2000/svg">
<path fill-rule="evenodd" clip-rule="evenodd" d="M13.9061 28.5H17.2021C18.584 28.5 19.7088 27.3758 19.7075 25.9933C19.7075 25.5134 19.9553 25.0845 20.3704 24.8448C20.7856 24.6052 21.2811 24.6058 21.6963 24.8448C22.2765 25.1804 22.9512 25.2681 23.5986 25.0957C24.2453 24.922 24.7863 24.5075 25.1211 23.9273L26.7694 21.0727C27.4604 19.8757 27.0483 18.34 25.8513 17.6485C25.4361 17.4088 25.1884 16.9793 25.1884 16.5C25.1884 16.0201 25.4361 15.5912 25.8513 15.3515C26.4314 15.0173 26.8466 14.4763 27.0197 13.8296C27.1927 13.1829 27.1043 12.5075 26.7694 11.9273L25.1211 9.0733C24.7863 8.49315 24.2453 8.07796 23.5986 7.90492C22.9512 7.73 22.2758 7.81964 21.6963 8.15515C21.2811 8.39356 20.7856 8.39418 20.3704 8.15515C19.9553 7.9155 19.7075 7.48599 19.7075 7.00669C19.7075 5.62481 18.5833 4.5 17.2008 4.5H13.9048C12.5229 4.5 11.3981 5.62418 11.3981 7.00669C11.3981 7.48599 11.1504 7.9155 10.7352 8.15515C10.32 8.39418 9.82453 8.39418 9.40935 8.15515C8.82982 7.82088 8.15382 7.73125 7.50707 7.90492C6.86033 8.07859 6.3194 8.49315 5.98451 9.0733L4.33683 11.9273C4.00256 12.5075 3.91292 13.1829 4.08659 13.8296C4.26026 14.4763 4.67483 15.0167 5.25497 15.3515C5.67016 15.5912 5.9179 16.0201 5.9179 16.5C5.9179 16.9793 5.67016 17.4088 5.25622 17.6472C4.67607 17.9821 4.26151 18.5224 4.08784 19.1698C3.91417 19.8172 4.00318 20.4925 4.33807 21.0721L5.98575 23.9267C6.32064 24.5068 6.86157 24.922 7.50832 25.0951C8.15444 25.2675 8.83045 25.1791 9.41059 24.8442C9.82516 24.6046 10.3213 24.6052 10.7358 24.8442C11.1516 25.0845 11.3994 25.514 11.3994 25.9933C11.3994 27.3752 12.5236 28.5 13.9061 28.5ZM11.3266 23.8221C10.9338 23.5955 10.503 23.4823 10.0729 23.4823C9.64215 23.4823 9.2114 23.5956 8.82049 23.8228C8.51423 24.0002 8.15693 24.0468 7.81457 23.9553C7.47221 23.8638 7.18588 23.6447 7.0091 23.3378L5.36079 20.4832C5.18339 20.1769 5.1367 19.8196 5.22821 19.4773C5.31971 19.1349 5.53882 18.8486 5.8457 18.6718C6.63063 18.2186 7.09935 17.4069 7.09935 16.5006C7.09935 15.5943 6.63063 14.7826 5.8457 14.3294C5.53944 14.1527 5.31971 13.8669 5.22821 13.5246C5.1367 13.1822 5.18339 12.8249 5.36079 12.5181L7.00847 9.66402C7.37386 9.03097 8.18681 8.8131 8.81987 9.17849C9.6048 9.63165 10.5416 9.63228 11.3266 9.17849C12.1115 8.72533 12.5802 7.91363 12.5802 7.00731C12.5802 6.27653 13.1753 5.68145 13.9061 5.68145H17.2021C17.9328 5.68145 18.5279 6.27653 18.5279 7.00731C18.5279 7.91363 18.9967 8.72533 19.7816 9.17849C20.5659 9.63165 21.5033 9.6329 22.2883 9.17849C22.5945 9.00109 22.9518 8.95378 23.2942 9.04591C23.6366 9.13741 23.9229 9.35714 24.0997 9.66402L25.748 12.5181C26.1134 13.1517 25.8955 13.9641 25.2624 14.3294C24.4775 14.7826 24.0088 15.5943 24.0088 16.5006C24.0088 17.4069 24.4775 18.2186 25.2624 18.6718C25.8961 19.0372 26.1134 19.8501 25.748 20.4832L24.0997 23.3378C23.7343 23.9709 22.922 24.1894 22.2883 23.8228C21.504 23.3696 20.5665 23.3696 19.7816 23.8228C18.9967 24.2759 18.5279 25.0876 18.5279 25.9939C18.5279 26.7247 17.9328 27.3198 17.2021 27.3198H13.9061C13.1753 27.3198 12.5802 26.7247 12.5802 25.9933C12.5802 25.087 12.1115 24.2753 11.3266 23.8221ZM16.0144 22.0556C15.1036 22.0556 14.1928 21.7678 13.452 21.1922C12.7184 20.6233 12.2222 19.8261 12.0592 18.9495C11.8962 18.0729 12.0734 17.1665 12.5589 16.3991C12.7126 16.1562 12.8851 15.9058 13.0672 15.6415C13.4604 15.0709 13.898 14.4357 14.2867 13.6718C14.8802 12.5052 15.0126 11.7795 15.0868 11.3728C15.1421 11.0695 15.1651 10.9436 15.3228 10.9445C15.692 10.9465 17.5002 12.8383 17.5002 15.25C17.5002 15.9391 18.2762 15.4255 18.2762 14.3901C18.2762 13.5556 20.4913 16.113 19.9697 18.9495C19.8067 19.8261 19.3105 20.6233 18.5769 21.1922C17.8361 21.7678 16.9253 22.0556 16.0144 22.0556ZM12.6249 18.9028C12.4168 17.9722 12.7935 17.0278 13.1668 16.5C14.2867 14.9167 15.1946 13.5556 15.5557 11.8334C16.5279 13.0278 16.9346 14.0467 16.9624 15.4634C16.9902 15.9911 18.0002 16.7778 18.6668 15.25C19.3335 16.3056 19.639 17.5833 19.431 18.8608C19.2934 19.5286 18.8334 20.3258 18.1935 20.8005C17.5536 21.2752 16.7074 21.5 16.0188 21.5C15.3303 21.5 14.4723 21.2965 13.7501 20.7222C13.0279 20.1389 12.7536 19.5286 12.6249 18.9028ZM15.9923 20.9444C16.3713 20.9444 16.7503 20.8279 17.0585 20.5947C17.3638 20.3643 17.5831 20.0162 17.6381 19.63C17.6931 19.2438 17.5831 18.891 17.4302 18.6532C17.2772 18.4155 17.0249 17.9627 16.9412 17.6814C16.9198 17.6098 16.9027 17.4981 16.8832 17.3713C16.8262 17.0001 16.7493 16.5 16.4904 16.5C16.0717 16.5 15.4898 17.0626 15.0471 17.5964C14.6043 18.1301 14.2106 18.9191 14.3464 19.63C14.4142 19.9851 14.6207 20.3643 14.926 20.5947C15.2342 20.8279 15.6132 20.9444 15.9923 20.9444ZM16.7736 20.1006C16.5636 20.2975 16.25 20.3818 15.9961 20.3818C15.6571 20.3818 15.3726 20.2524 15.2105 20.1006C14.9818 19.8864 14.8911 19.6515 14.8755 19.3692C14.8476 18.8629 15.2105 18.2721 15.5175 17.9065C15.9642 17.3745 16.2709 17.1751 16.2709 17.1751C16.2709 17.1751 16.3549 17.7563 16.4663 18.019C16.5776 18.2817 16.7544 18.6378 16.885 18.8347C17.0528 19.0879 17.1197 19.2707 17.0806 19.5661C17.0437 19.8447 16.8739 20.0065 16.7736 20.1006Z" fill="#F2F2F2"/>
</svg>
