<svg width="32" height="32" viewBox="0 0 32 32" fill="none" xmlns="http://www.w3.org/2000/svg">
<path fill-rule="evenodd" clip-rule="evenodd" d="M16.8216 9.69754V11.3523C19.2391 11.7326 21.085 13.6723 21.085 16.0004C21.085 18.3346 19.2296 20.2782 16.803 20.6515L16.7973 22.1063C16.8038 22.1638 16.8035 22.2218 16.7967 22.2793L16.7787 26.8587C16.7766 27.3054 16.382 27.6667 15.8958 27.6667H15.8923C15.4047 27.6647 15.0108 27.3008 15.0129 26.8528L15.0236 24.1469L14.1888 24.9068C14.0163 25.0633 13.7921 25.1415 13.5678 25.1415C13.3407 25.1415 13.1136 25.0613 12.9404 24.9016C12.5976 24.5833 12.5997 24.0694 12.9461 23.7544L15.0326 21.8551L15.0479 17.9525L11.9904 20.7365L11.973 23.433C11.9702 23.879 11.5756 24.239 11.0901 24.2397L11.0915 24.239H11.0866C10.599 24.2364 10.2058 23.8712 10.2087 23.4232L10.2155 22.3526L8.2083 24.1803C8.03656 24.3368 7.81158 24.4151 7.58731 24.4151C7.36021 24.4151 7.1331 24.3349 6.95994 24.1751C6.61715 23.8568 6.61928 23.3436 6.96561 23.028L8.97476 21.1985L7.7893 21.1922C7.30173 21.1896 6.90855 20.8244 6.91139 20.3763C6.91423 19.9303 7.30883 19.5696 7.79426 19.5696H7.79923L10.7461 19.5856L13.8076 16.798L9.55055 16.776L7.43346 18.695C7.26171 18.8509 7.03744 18.9285 6.81389 18.9285C6.58607 18.9285 6.35826 18.8476 6.18509 18.6872C5.84301 18.3683 5.84656 17.8544 6.19361 17.5401L7.0508 16.7631L4.21117 16.7484C3.7236 16.7451 3.33043 16.3799 3.33327 15.9319C3.33611 15.4852 3.7307 15.1252 4.21614 15.1252H4.22111L7.02512 15.1397L6.21703 14.3869C5.87495 14.068 5.8785 13.5541 6.22554 13.2398C6.57259 12.9255 7.13183 12.9287 7.47391 13.2476L9.51888 15.1526L13.826 15.1748L10.8033 12.3607L7.87572 12.3392C7.38815 12.3359 6.99639 11.9694 6.99994 11.5214C7.00349 11.0753 7.39809 10.7166 7.88281 10.7166H7.88991L9.04644 10.7251L7.02138 8.83973C6.6786 8.52083 6.68285 8.00758 7.02919 7.6926C7.37624 7.37761 7.93548 7.38152 8.27756 7.69977L10.307 9.58922L10.3164 8.49799C10.3199 8.05192 10.7145 7.69324 11.1993 7.69324H11.2064C11.6939 7.6965 12.0857 8.06301 12.0821 8.51103L12.0587 11.22L15.0559 14.0104V10.0157L13.0281 8.15238C12.6832 7.83544 12.6832 7.32219 13.0281 7.00525C13.3731 6.6883 13.9316 6.6883 14.2765 7.00525L15.0559 7.72145V5.14465C15.0559 4.69662 15.4512 4.33337 15.9388 4.33337C16.4263 4.33337 16.8216 4.69662 16.8216 5.14465V9.66255C16.8219 9.67421 16.8219 9.68588 16.8216 9.69754ZM16.836 18.9853C18.2653 18.6279 19.3192 17.4254 19.3192 16.0004C19.3192 14.5755 18.2653 13.3722 16.836 13.0155V18.9853ZM21.1618 11.6108C21.3349 11.7706 21.562 11.8508 21.7891 11.8508V11.8514C22.0134 11.8514 22.2384 11.7732 22.4101 11.6167L24.7621 9.47564C25.1084 9.16065 25.1105 8.64675 24.7677 8.3285C24.425 8.01025 23.8657 8.00829 23.5194 8.32328L21.1674 10.4636C20.8211 10.7786 20.819 11.2925 21.1618 11.6108ZM24.1301 24.4001C23.903 24.4001 23.6759 24.3199 23.5027 24.1601L21.1735 21.9989C20.8307 21.6807 20.8328 21.1668 21.1792 20.8518C21.5255 20.5368 22.084 20.5387 22.4275 20.857L24.7568 23.0182C25.0996 23.3365 25.0974 23.8504 24.7511 24.1654C24.5793 24.3219 24.3544 24.4001 24.1301 24.4001ZM27.4464 16.7217H27.4507C27.9361 16.7217 28.3314 16.361 28.3335 15.9143C28.3357 15.4663 27.9425 15.1011 27.4549 15.0991L24.1449 15.0848H24.1406C23.6552 15.0848 23.2599 15.4454 23.2577 15.8921C23.2556 16.3401 23.6488 16.7054 24.1364 16.7073L27.4464 16.7217Z" fill="#F2F2F2"/>
</svg>
