<svg width="24" height="24" viewBox="0 0 24 24" fill="none" xmlns="http://www.w3.org/2000/svg">
<path fill-rule="evenodd" clip-rule="evenodd" d="M15.9212 6.99023V6.99002C15.9212 4.82716 14.16 3.07113 11.9971 3.07113C9.83427 3.07113 8.07308 4.83231 8.07308 6.99002V6.99023H15.9212ZM7.00195 6.99023V6.99002C7.00195 4.2401 9.24205 2 11.992 2C14.7419 2 16.982 4.2401 16.982 6.99002L16.982 6.99023H17.008C18.6559 6.99023 20 8.3343 20 9.98219V19.9983C20.0051 21.6513 18.6611 22.9902 17.0132 22.9902H6.99195C5.34406 22.9902 4 21.6462 4 19.9983V9.98219C4 8.3343 5.34406 6.99023 6.99195 6.99023H7.00195ZM5.07113 9.97704C5.07113 8.92136 5.93112 8.05621 6.99195 8.05621V8.06136H17.008C18.0637 8.06136 18.9289 8.92136 18.9289 9.98219V19.9931C18.9289 21.0539 18.0689 21.9139 17.008 21.9139H6.99195C5.93627 21.9139 5.07113 21.0539 5.07113 19.9931V9.97704ZM11.5078 15.2371C10.5039 15.0112 9.75195 14.1126 9.75195 13.0414C9.75195 11.8003 10.7613 10.791 12.0024 10.791C13.2434 10.791 14.2528 11.8003 14.2528 13.0414C14.2528 14.0832 13.5415 14.9618 12.5789 15.217V18.6598C12.5789 18.9534 12.3369 19.1954 12.0434 19.1954C11.7498 19.1954 11.5078 18.9534 11.5078 18.6598V15.2371ZM12.0024 11.857C11.3483 11.857 10.8179 12.3874 10.8179 13.0414C10.8179 13.6954 11.3483 14.2258 12.0024 14.2258C12.6564 14.2258 13.1868 13.6954 13.1868 13.0414C13.1868 12.3874 12.6564 11.857 12.0024 11.857Z" fill="#F2F2F2"/>
</svg>
