<svg width="24" height="24" viewBox="0 0 24 24" fill="none" xmlns="http://www.w3.org/2000/svg">
<path fill-rule="evenodd" clip-rule="evenodd" d="M3 11.2248C3 15.7603 6.68688 19.4501 11.2181 19.4501C13.2902 19.4501 15.1857 18.6786 16.6328 17.4076L20.7661 21.541C20.8727 21.6475 21.0119 21.7008 21.1516 21.7008C21.2913 21.7008 21.4309 21.6475 21.537 21.541C21.7501 21.3283 21.7501 20.9832 21.537 20.7701L17.4028 16.6359C18.6685 15.1886 19.4364 13.2948 19.4362 11.2248C19.4362 6.68976 15.7498 3 11.2181 3C6.6864 3 3 6.68976 3 11.2248ZM4.09056 11.2248C4.09056 7.29072 7.28832 4.09056 11.2181 4.09056C15.1483 4.09056 18.3456 7.29072 18.3456 11.2248C18.3456 15.1589 15.1483 18.3595 11.2181 18.3595C7.28784 18.3595 4.09056 15.1589 4.09056 11.2248Z" fill="#B5B5B5"/>
</svg>
