<svg width="32" height="33" viewBox="0 0 32 33" fill="none" xmlns="http://www.w3.org/2000/svg">
<path fill-rule="evenodd" clip-rule="evenodd" d="M14.5597 7.32272L15.0845 7.84752V6.41392C15.0845 5.90832 15.4941 5.49872 15.9997 5.49872C16.5053 5.49872 16.9149 5.90832 16.9149 6.41392V7.84752L17.4397 7.32272C17.7981 6.96432 18.3741 6.96432 18.7325 7.32272L18.7581 7.34832C19.1165 7.70672 19.1165 8.28272 18.7581 8.64112L16.9149 10.4843V14.8939L20.8125 12.6603L21.4717 10.1899C21.5997 9.70352 22.0989 9.40912 22.5853 9.53712C23.0781 9.66512 23.3725 10.1707 23.2381 10.6635L23.0461 11.3739L24.2813 10.6571C24.7229 10.4011 25.2861 10.5547 25.5357 10.9963L25.5421 11.0155C25.7917 11.4507 25.6381 12.0139 25.2029 12.2635L23.9613 12.9803L24.6973 13.1723C25.1901 13.3003 25.4845 13.8059 25.3501 14.2987V14.3051C25.2157 14.7915 24.7165 15.0731 24.2301 14.9451L21.7021 14.2667L17.8621 16.5003L21.7021 18.7339L24.2301 18.0555C24.7165 17.9211 25.2157 18.2091 25.3501 18.6955V18.7019C25.4845 19.1947 25.1901 19.7003 24.6973 19.8283L23.9613 20.0203L25.1965 20.7435C25.6381 20.9931 25.7853 21.5563 25.5357 21.9915L25.5293 22.0043C25.2733 22.4459 24.7165 22.5995 24.2749 22.3435L23.0397 21.6267L23.2317 22.3371C23.3661 22.8299 23.0717 23.3355 22.5789 23.4635C22.0925 23.5915 21.5933 23.2971 21.4653 22.8107L20.8125 20.3403L16.9149 18.1067V22.5163L18.7581 24.3595C19.1165 24.7179 19.1165 25.2939 18.7581 25.6523L18.7325 25.6779C18.3741 26.0363 17.7981 26.0363 17.4397 25.6779L16.9149 25.1531V26.5867C16.9149 27.0923 16.5053 27.5019 15.9997 27.5019C15.4941 27.5019 15.0845 27.0923 15.0845 26.5867V25.1531L14.5597 25.6779C14.2013 26.0363 13.6253 26.0363 13.2669 25.6779L13.2413 25.6523C12.8829 25.2939 12.8829 24.7179 13.2413 24.3595L15.0845 22.5163V18.0939L11.1869 20.3275L10.5341 22.7979C10.4061 23.2843 9.90688 23.5787 9.42048 23.4507C8.92768 23.3227 8.63328 22.8171 8.76768 22.3243L8.95968 21.6139L7.72448 22.3307C7.28288 22.5867 6.71968 22.4331 6.47008 21.9915L6.46368 21.9787C6.21408 21.5435 6.36768 20.9803 6.80288 20.7307L8.04448 20.0139L7.30848 19.8219C6.81568 19.6939 6.52128 19.1883 6.65568 18.6955V18.6891C6.79008 18.2027 7.28928 17.9211 7.77568 18.0491L10.3037 18.7275L14.1437 16.4939L10.3037 14.2603L7.77568 14.9387C7.28928 15.0731 6.79008 14.7851 6.65568 14.2987V14.2923C6.52128 13.7995 6.81568 13.2939 7.30848 13.1659L8.04448 12.9739L6.80288 12.2571C6.36128 12.0075 6.21408 11.4443 6.46368 11.0091L6.47008 10.9963C6.72608 10.5547 7.28288 10.4011 7.72448 10.6571L8.95968 11.3739L8.76768 10.6635C8.63328 10.1707 8.92768 9.66512 9.42048 9.53712C9.90688 9.40912 10.4061 9.70352 10.5341 10.1899L11.1869 12.6603L15.0845 14.8939V10.4843L13.2413 8.64112C12.8829 8.28272 12.8829 7.70672 13.2413 7.34832L13.2669 7.32272C13.6253 6.96432 14.2013 6.96432 14.5597 7.32272Z" fill="#FFFFFF"/>
</svg>
