<svg width="32" height="33" viewBox="0 0 32 33" fill="none" xmlns="http://www.w3.org/2000/svg">
<path fill-rule="evenodd" clip-rule="evenodd" d="M15.0442 6.13565C10.0324 6.51989 6.01968 10.5327 5.63551 15.5445H3.12212C2.68653 15.5445 2.33325 15.8978 2.33325 16.3333C2.33325 16.7689 2.68653 17.1222 3.12212 17.1222H5.6355C6.01962 22.1341 10.0324 26.1469 15.0442 26.5312V29.0445C15.0442 29.4801 15.3975 29.8334 15.8331 29.8334C16.2687 29.8334 16.6219 29.4801 16.6219 29.0445V26.5312C21.6339 26.1472 25.6469 22.1342 26.0311 17.1222H28.544C28.9796 17.1222 29.3328 16.7689 29.3328 16.3333C29.3328 15.8978 28.9796 15.5445 28.544 15.5445H26.0311C25.6469 10.5325 21.6339 6.51966 16.6219 6.13561V3.62225C16.6219 3.18665 16.2687 2.83337 15.8331 2.83337C15.3975 2.83337 15.0442 3.18665 15.0442 3.62225V6.13565ZM15.7332 7.68382C15.7659 7.68795 15.7992 7.69008 15.8331 7.69008C15.8669 7.69008 15.9002 7.68795 15.9329 7.68382C20.6483 7.73731 24.4696 11.5832 24.4834 16.3078C24.4831 16.3163 24.483 16.3248 24.483 16.3333L24.483 16.3421L24.4834 16.3589C24.4696 21.114 20.599 24.979 15.8418 24.9836L15.8331 24.9835L15.8246 24.9836C11.059 24.9788 7.18313 21.1001 7.18313 16.3334C7.18313 11.5972 11.0096 7.73763 15.7332 7.68382ZM19.1855 17.2491C19.2884 17.2491 19.37 17.3438 19.3405 17.4515C19.3021 17.658 19.2499 17.8384 19.1855 17.9975C18.9145 18.6808 18.4076 19.1411 17.7367 19.3777C17.4054 19.4936 17.0706 19.5753 16.731 19.6144C16.3915 19.6576 16.0176 19.6789 15.6006 19.6789C14.7794 19.6789 14.1216 19.6055 13.4555 19.3654C12.7977 19.1246 12.2907 18.6478 12.0198 17.9728C11.8565 17.5859 11.7749 17.1085 11.7708 16.5371C11.7708 15.9657 11.8524 15.4882 12.0198 15.1013C12.2907 14.4181 12.7977 13.9448 13.4555 13.7088C14.1216 13.4721 14.7794 13.3905 15.6006 13.4035C16.4217 13.3905 17.0747 13.4721 17.7326 13.7088C18.3986 13.9455 18.9104 14.4181 19.1855 15.1013C19.2499 15.2516 19.3014 15.4279 19.3405 15.6302C19.3535 15.7331 19.2801 15.8237 19.1772 15.8237H17.5995C17.522 15.8237 17.4705 15.7894 17.4403 15.7249L17.4143 15.6563C17.1776 15.1192 16.6446 14.818 15.6006 14.818C14.5565 14.818 13.9803 15.1274 13.7436 15.742C13.662 15.9225 13.6188 16.1893 13.6188 16.5371C13.6188 16.8849 13.662 17.1476 13.7436 17.328C13.9803 17.9516 14.599 18.2609 15.6006 18.2609C16.6021 18.2609 17.1783 17.99 17.4232 17.4439L17.4493 17.3534C17.4794 17.2848 17.5309 17.2505 17.6084 17.2505H19.1861L19.1855 17.2491ZM20.6008 12.1317C20.3861 11.9129 20.124 11.8052 19.8188 11.8052C19.5135 11.8052 19.2556 11.9122 19.0409 12.1317C18.8303 12.3465 18.7226 12.6085 18.7226 12.9096C18.7226 13.2108 18.8303 13.4687 19.0409 13.6834C19.2556 13.8981 19.5142 14.0058 19.8188 14.0058C20.1233 14.0058 20.3861 13.8981 20.6008 13.6834C20.8155 13.4687 20.9232 13.2149 20.9232 12.9096C20.9232 12.6044 20.8155 12.3465 20.6008 12.1317ZM20.0465 12.6778C20.1796 12.8026 20.1796 13.0132 20.0465 13.1463C19.9223 13.2711 19.7241 13.2711 19.591 13.1463C19.4662 13.0132 19.4662 12.8026 19.591 12.6778C19.7241 12.5447 19.9217 12.5447 20.0465 12.6778Z" fill="#F2F2F2"/>
</svg>
