<svg width="25" height="25" viewBox="0 0 25 25" fill="none" xmlns="http://www.w3.org/2000/svg">
<path d="M5.29573 12.9668H2.84165C2.51496 12.9668 2.25 12.7018 2.25 12.3751C2.25 12.0484 2.51496 11.7834 2.84165 11.7834H5.29573C5.62243 11.7834 5.88739 12.0484 5.88739 12.3751C5.88739 12.7018 5.62243 12.9668 5.29573 12.9668Z" fill="white"/>
<path d="M21.9083 12.9668H19.4542C19.1275 12.9668 18.8625 12.7018 18.8625 12.3751C18.8625 12.0484 19.1275 11.7834 19.4542 11.7834H21.9083C22.235 11.7834 22.4999 12.0484 22.4999 12.3751C22.4999 12.7018 22.235 12.9668 21.9083 12.9668Z" fill="white"/>
<path d="M12.3751 22.4999C12.0484 22.4999 11.7834 22.235 11.7834 21.9083V19.4542C11.7834 19.1275 12.0484 18.8625 12.3751 18.8625C12.7018 18.8625 12.9668 19.1275 12.9668 19.4542V21.9083C12.9668 22.235 12.7018 22.4999 12.3751 22.4999Z" fill="white"/>
<path d="M12.3751 5.89253C12.0484 5.89253 11.7834 5.62757 11.7834 5.30088V2.84165C11.7834 2.51496 12.0484 2.25 12.3751 2.25C12.7018 2.25 12.9668 2.51496 12.9668 2.84165V5.30088C12.9668 5.62757 12.7018 5.89253 12.3751 5.89253Z" fill="white"/>
<path d="M12.375 20.0459C8.14547 20.0459 4.7041 16.6046 4.7041 12.375C4.7041 8.14547 8.14547 4.7041 12.375 4.7041C16.6046 4.7041 20.0459 8.14547 20.0459 12.375C20.0459 16.6046 16.6046 20.0459 12.375 20.0459ZM12.375 5.88741C8.79783 5.88741 5.88741 8.79783 5.88741 12.375C5.88741 15.9522 8.79783 18.8626 12.375 18.8626C15.9522 18.8626 18.8626 15.9522 18.8626 12.375C18.8626 8.79783 15.9522 5.88741 12.375 5.88741Z" fill="white"/>
<path d="M14.8892 13.0619C14.9663 13.0619 15.0276 13.1329 15.0054 13.2137C14.9766 13.3686 14.9375 13.5039 14.8892 13.6232C14.6859 14.1357 14.3057 14.4809 13.8026 14.6584C13.5541 14.7453 13.303 14.8065 13.0483 14.8359C12.7937 14.8683 12.5133 14.8842 12.2005 14.8842C11.5846 14.8842 11.0913 14.8292 10.5917 14.6491C10.0983 14.4685 9.7181 14.111 9.51488 13.6047C9.39244 13.3145 9.33121 12.9565 9.32812 12.5279C9.32812 12.0993 9.38935 11.7413 9.51488 11.4511C9.7181 10.9387 10.0983 10.5837 10.5917 10.4067C11.0913 10.2292 11.5846 10.168 12.2005 10.1778C12.8163 10.168 13.3061 10.2292 13.7995 10.4067C14.299 10.5842 14.6829 10.9387 14.8892 11.4511C14.9375 11.5638 14.9761 11.696 15.0054 11.8478C15.0152 11.9249 14.9602 11.9928 14.883 11.9928H13.6997C13.6415 11.9928 13.603 11.9671 13.5803 11.9188L13.5608 11.8673C13.3833 11.4645 12.9835 11.2386 12.2005 11.2386C11.4174 11.2386 10.9853 11.4706 10.8078 11.9316C10.7466 12.0669 10.7141 12.2671 10.7141 12.5279C10.7141 12.7887 10.7466 12.9858 10.8078 13.1211C10.9853 13.5888 11.4493 13.8208 12.2005 13.8208C12.9516 13.8208 13.3838 13.6176 13.5675 13.2081L13.587 13.1401C13.6096 13.0887 13.6482 13.063 13.7064 13.063H14.8897L14.8892 13.0619Z" fill="white"/>
<path d="M15.3641 8.979C15.5931 8.979 15.7896 9.05978 15.9506 9.2239C16.1117 9.38493 16.1924 9.57838 16.1924 9.80732C16.1924 10.0363 16.1117 10.2266 15.9506 10.3877C15.7896 10.5487 15.5926 10.6295 15.3641 10.6295C15.1357 10.6295 14.9417 10.5487 14.7807 10.3877C14.6228 10.2266 14.542 10.0332 14.542 9.80732C14.542 9.58146 14.6228 9.38493 14.7807 9.2239C14.9417 9.05926 15.1352 8.979 15.3641 8.979ZM15.5349 9.98482C15.6347 9.88501 15.6347 9.72706 15.5349 9.63342C15.4413 9.53362 15.2931 9.53362 15.1933 9.63342C15.0997 9.72706 15.0997 9.88501 15.1933 9.98482C15.2931 10.0785 15.4418 10.0785 15.5349 9.98482Z" fill="white"/>
</svg>
