<svg width="20" height="20" viewBox="0 0 20 20" fill="none" xmlns="http://www.w3.org/2000/svg">
<path d="M9.91606 8.59114H9.07206C8.81606 8.59114 8.61206 8.38714 8.61206 8.13114C8.61206 7.87514 8.81606 7.67114 9.07206 7.67114H9.91606C10.1721 7.67114 10.3761 7.87514 10.3761 8.13114C10.3761 8.38714 10.1721 8.59114 9.91606 8.59114Z" fill="#F2F2F2"/>
<path d="M9.91606 7.26326H9.07206C8.81606 7.26326 8.61206 7.05926 8.61206 6.80326C8.61206 6.54726 8.81606 6.34326 9.07206 6.34326H9.91606C10.1721 6.34326 10.3761 6.54726 10.3761 6.80326C10.3761 7.05926 10.1721 7.26326 9.91606 7.26326Z" fill="#F2F2F2"/>
<path d="M9.91606 5.93929H9.07206C8.81606 5.93929 8.61206 5.73529 8.61206 5.47929C8.61206 5.22329 8.81606 5.01929 9.07206 5.01929H9.91606C10.1721 5.01929 10.3761 5.22329 10.3761 5.47929C10.3761 5.73529 10.1721 5.93929 9.91606 5.93929Z" fill="#F2F2F2"/>
<path d="M9.91606 9.91926H9.07206C8.81606 9.91926 8.61206 9.71527 8.61206 9.45927C8.61206 9.20327 8.81606 8.99927 9.07206 8.99927H9.91606C10.1721 8.99927 10.3761 9.20327 10.3761 9.45927C10.3761 9.71527 10.1721 9.91926 9.91606 9.91926Z" fill="#F2F2F2"/>
<path d="M9.91606 11.3673H9.07206C8.81606 11.3673 8.61206 11.1633 8.61206 10.9073C8.61206 10.6513 8.81606 10.4473 9.07206 10.4473H9.91606C10.1721 10.4473 10.3761 10.6513 10.3761 10.9073C10.3761 11.1633 10.1721 11.3673 9.91606 11.3673Z" fill="#F2F2F2"/>
<path d="M9.96805 17.9352C9.84405 17.9352 9.72405 17.9272 9.60005 17.9152C8.08405 17.7472 6.85605 16.5232 6.68805 15.0072C6.53605 13.6592 7.20804 12.3752 8.37204 11.7272V3.69125C8.37204 2.80725 9.09205 2.08325 9.98005 2.08325C10.864 2.08325 11.588 2.80325 11.588 3.69125V11.7312C12.632 12.3112 13.288 13.4192 13.288 14.6232C13.288 15.5632 12.884 16.4632 12.184 17.0912C11.576 17.6392 10.784 17.9352 9.96805 17.9352ZM8.98005 12.4512C8.04005 12.8832 7.48405 13.8672 7.60005 14.9032C7.72405 15.9952 8.60805 16.8792 9.70005 16.9992C10.392 17.0752 11.056 16.8672 11.568 16.4072C12.076 15.9552 12.364 15.3032 12.364 14.6232C12.364 13.6912 11.816 12.8352 10.968 12.4472C10.784 12.3632 10.664 12.1752 10.664 11.9712V3.69125C10.664 3.31125 10.356 3.00325 9.97605 3.00325C9.59605 3.00325 9.28805 3.31125 9.28805 3.69125V11.9752C9.29205 12.1832 9.17205 12.3672 8.98005 12.4512Z" fill="#F2F2F2"/>
<path d="M7.23193 15.4033H12.4599L11.4679 16.8553L9.65193 17.4593L8.25193 16.5753L7.23193 15.4033Z" fill="#F2F2F2"/>
</svg>
