<svg width="96" height="96" viewBox="0 0 96 96" fill="none" xmlns="http://www.w3.org/2000/svg">
<path d="M48.0176 85.0352C27.608 85.0352 11 68.4272 11 48.0176C11 27.608 27.608 11 48.0176 11C68.4272 11 85.0352 27.608 85.0352 48.0176C85.0352 68.4272 68.4272 85.0352 48.0176 85.0352ZM48.0176 15.416C30.0464 15.416 15.416 30.0464 15.416 48.0176C15.416 65.9888 30.0464 80.6192 48.0176 80.6192C65.9888 80.6192 80.6192 65.9888 80.6192 48.0176C80.6192 30.0464 65.9888 15.416 48.0176 15.416Z" fill="#EEEEEE"/>
<path d="M64.0129 65.664C63.4561 65.664 62.8801 65.4528 62.4577 65.0112L46.4065 48.96C45.9841 48.5376 45.7537 47.9808 45.7537 47.4048V33.408C45.7537 32.1792 46.7329 31.2 47.9617 31.2C49.1905 31.2 50.1697 32.1792 50.1697 33.408V46.5024L65.5681 61.9008C66.4321 62.7648 66.4321 64.1664 65.5681 65.0304C65.1457 65.4528 64.5889 65.664 64.0129 65.664Z" fill="#EEEEEE"/>
</svg>
