<svg width="32" height="32" viewBox="0 0 32 32" fill="none" xmlns="http://www.w3.org/2000/svg">
<path fill-rule="evenodd" clip-rule="evenodd" d="M3.64795 15.9808C3.64795 22.784 9.18395 28.32 15.9872 28.32C22.7904 28.32 28.3264 22.784 28.3264 15.9808C28.3264 9.1776 22.7904 3.6416 15.9872 3.6416C9.18395 3.6416 3.64795 9.1776 3.64795 15.9808ZM5.11995 15.9808C5.11995 9.9904 9.99675 5.1136 15.9872 5.1136C21.9776 5.1136 26.8544 9.9904 26.8544 15.9808C26.8544 21.9712 21.9776 26.848 15.9872 26.848C9.99675 26.848 5.11995 21.9712 5.11995 15.9808ZM20.8191 21.6704C20.9599 21.8176 21.1519 21.888 21.3375 21.888C21.5295 21.888 21.7151 21.8176 21.8559 21.6768C22.1439 21.3888 22.1439 20.9216 21.8559 20.6336L16.7231 15.5008V11.136C16.7231 10.7264 16.3967 10.4 15.9871 10.4C15.5775 10.4 15.2511 10.7264 15.2511 11.136V15.8016C15.2511 15.9936 15.3279 16.1792 15.4687 16.32L20.8191 21.6704Z" fill="#F2F2F2"/>
</svg>
